<svg width="39" height="16" viewBox="0 0 39 16" fill="none" xmlns="http://www.w3.org/2000/svg">
<g clip-path="url(#clip0_4_2056)">
<path d="M7.12974 2.0628C6.6727 2.60324 5.94146 3.0295 5.21021 2.9686C5.1188 2.23787 5.47681 1.46147 5.89575 0.981922C6.35278 0.426261 7.15259 0.0304472 7.80005 0C7.87622 0.76118 7.57915 1.50714 7.12974 2.0628ZM7.79243 3.11323C6.73364 3.05233 5.8272 3.71456 5.32446 3.71456C4.81411 3.71456 4.04478 3.14367 3.20688 3.1589C2.11763 3.17412 1.10454 3.79068 0.548486 4.7726C-0.594092 6.73644 0.251416 9.64415 1.35591 11.2426C1.89673 12.0343 2.54419 12.902 3.39731 12.8716C4.20474 12.8411 4.52466 12.3463 5.49966 12.3463C6.48228 12.3463 6.76411 12.8716 7.61724 12.8563C8.50083 12.8411 9.05688 12.0647 9.5977 11.2731C10.2147 10.3749 10.4661 9.49952 10.4813 9.45385C10.4661 9.43863 8.77505 8.79163 8.75981 6.84301C8.74458 5.21408 10.0928 4.43768 10.1538 4.39201C9.39204 3.26546 8.20376 3.14367 7.79243 3.11323ZM13.909 0.905804V12.7726H15.7524V8.71551H18.3041C20.635 8.71551 22.2727 7.11703 22.2727 4.80304C22.2727 2.48906 20.6655 0.905804 18.3651 0.905804H13.909ZM15.7524 2.45861H17.8776C19.4772 2.45861 20.3913 3.31113 20.3913 4.81066C20.3913 6.31018 19.4772 7.17031 17.87 7.17031H15.7524V2.45861ZM25.6395 12.8639C26.7973 12.8639 27.8713 12.2778 28.3588 11.3492H28.3969V12.7726H30.1032V6.86584C30.1032 5.15319 28.7321 4.04948 26.6221 4.04948C24.6645 4.04948 23.2172 5.16841 23.1639 6.70599H24.8245C24.9616 5.97526 25.6395 5.49572 26.5688 5.49572C27.6961 5.49572 28.3284 6.02093 28.3284 6.98763V7.64225L26.028 7.77926C23.8876 7.90866 22.7297 8.78401 22.7297 10.3064C22.7297 11.844 23.9256 12.8639 25.6395 12.8639ZM26.1346 11.4558C25.152 11.4558 24.5274 10.9838 24.5274 10.2607C24.5274 9.51475 25.1292 9.08088 26.2793 9.01237L28.3284 8.88297V9.55281C28.3284 10.6641 27.3838 11.4558 26.1346 11.4558ZM32.3807 16C34.1784 16 35.0239 15.3149 35.7627 13.2369L39 4.16365H37.1262L34.9553 11.1741H34.9172L32.7463 4.16365H30.8192L33.9422 12.803L33.7747 13.3283C33.4928 14.2188 33.0358 14.5614 32.2208 14.5614C32.076 14.5614 31.7942 14.5461 31.6799 14.5309V15.9543C31.7866 15.9848 32.2436 16 32.3807 16Z" fill="black"/>
</g>
<defs>
<clipPath id="clip0_4_2056">
<rect width="39" height="16" fill="white"/>
</clipPath>
</defs>
</svg>
