<svg width="40" height="16" viewBox="0 0 40 16" fill="none" xmlns="http://www.w3.org/2000/svg">
<g clip-path="url(#clip0_4_2065)">
<path d="M18.9187 7.81651V12.5066H17.4415V0.924118H21.3592C21.8269 0.914279 22.2918 0.99782 22.7272 1.16992C23.1626 1.34202 23.5599 1.59927 23.8961 1.92683C24.2357 2.2345 24.506 2.61183 24.6887 3.03345C24.8715 3.45507 24.9626 3.91122 24.9558 4.37124C24.9655 4.83372 24.8759 5.29284 24.693 5.71715C24.51 6.14146 24.2382 6.52091 23.8961 6.82951C23.211 7.48751 22.3654 7.8162 21.3592 7.81559H18.9187V7.81651ZM18.9187 2.3501V6.3933H21.3959C21.6675 6.40141 21.9378 6.35234 22.1894 6.24922C22.4411 6.1461 22.6687 5.99121 22.8575 5.79445C23.0454 5.61048 23.1947 5.39044 23.2966 5.14734C23.3986 4.90423 23.4512 4.643 23.4512 4.37909C23.4512 4.11518 23.3986 3.85395 23.2966 3.61085C23.1947 3.36775 23.0454 3.14771 22.8575 2.96374C22.671 2.76284 22.4443 2.60415 22.1923 2.4982C21.9403 2.39224 21.6689 2.34145 21.3959 2.34917H18.9187V2.3501Z" fill="#5F6368"/>
<path d="M28.3598 4.32324C29.4516 4.32324 30.3134 4.61713 30.9453 5.20489C31.5771 5.79266 31.8927 6.59853 31.8921 7.6225V12.5067H30.4792V11.4069H30.4149C29.8033 12.3126 28.9898 12.7655 27.9744 12.7655C27.1077 12.7655 26.3826 12.5067 25.799 11.9892C25.519 11.7516 25.2951 11.4541 25.1437 11.1184C24.9923 10.7827 24.9171 10.4171 24.9237 10.0484C24.9237 9.22838 25.2314 8.57623 25.8467 8.09197C26.4621 7.60771 27.2835 7.36496 28.3111 7.36373C29.1883 7.36373 29.9106 7.52546 30.4783 7.84892V7.50883C30.4799 7.25747 30.426 7.00889 30.3205 6.78111C30.215 6.55333 30.0605 6.35206 29.8681 6.1919C29.4775 5.83691 28.9684 5.64321 28.4423 5.64941C27.6172 5.64941 26.9643 5.99998 26.4835 6.70111L25.1825 5.87583C25.8981 4.84077 26.9572 4.32324 28.3598 4.32324ZM26.4486 10.0808C26.4476 10.2701 26.4916 10.457 26.5768 10.6258C26.662 10.7946 26.7861 10.9404 26.9386 11.0511C27.2653 11.31 27.6708 11.4471 28.0863 11.4393C28.7097 11.4382 29.3072 11.1883 29.7479 10.7443C30.2373 10.2804 30.4819 9.73605 30.4819 9.11132C30.0213 8.74166 29.3791 8.55682 28.5552 8.55682C27.9551 8.55682 27.4548 8.70253 27.0542 8.99395C26.6495 9.28968 26.4486 9.64918 26.4486 10.0808Z" fill="#5F6368"/>
<path d="M40.0027 4.58203L35.0703 16H33.5454L35.3758 12.0049L32.1324 4.58203H33.7381L36.0823 10.2749H36.1144L38.3943 4.58203H40.0027Z" fill="#5F6368"/>
<path d="M12.9495 6.80561C12.9501 6.35217 12.912 5.89952 12.8357 5.45264H6.60596V8.01534H10.1741C10.1011 8.42464 9.94654 8.81481 9.71979 9.16232C9.49304 9.50984 9.19877 9.80752 8.85473 10.0374V11.7009H10.9842C12.2311 10.5429 12.9495 8.83045 12.9495 6.80561Z" fill="#4285F4"/>
<path d="M6.60598 13.3077C8.38867 13.3077 9.88969 12.7181 10.9843 11.7015L8.85476 10.038C8.26205 10.4428 7.4987 10.6739 6.60598 10.6739C4.88292 10.6739 3.42044 9.50386 2.89746 7.92725H0.703735V9.64157C1.25356 10.7436 2.09665 11.67 3.1389 12.3174C4.18114 12.9648 5.3815 13.3077 6.60598 13.3077Z" fill="#34A853"/>
<path d="M2.89739 7.92732C2.62091 7.10116 2.62091 6.20649 2.89739 5.38033V3.66602H0.703661C0.24113 4.59309 0.000244141 5.61627 0.000244141 6.65383C0.000244141 7.69139 0.24113 8.71457 0.703661 9.64164L2.89739 7.92732Z" fill="#FBBC04"/>
<path d="M6.60598 2.63381C7.54805 2.6183 8.45834 2.97683 9.1401 3.6319L11.0255 1.73275C9.82998 0.601647 8.24611 -0.0193473 6.60598 -5.17194e-05C5.3815 4.49287e-06 4.18114 0.342863 3.1389 0.990245C2.09665 1.63763 1.25356 2.56405 0.703735 3.66609L2.89746 5.38041C3.42044 3.80379 4.88292 2.63381 6.60598 2.63381Z" fill="#EA4335"/>
</g>
<defs>
<clipPath id="clip0_4_2065">
<rect width="40" height="16" fill="white"/>
</clipPath>
</defs>
</svg>
