<svg width="128" height="32" viewBox="0 0 128 32" fill="none" xmlns="http://www.w3.org/2000/svg">
<path d="M22.3475 24.3556H11.6459C11.3311 24.3556 11.1213 24.2667 10.9115 24L3.14754 12.5333C3.04262 12.3556 3.04262 12.0889 3.14754 11.8222L10.9115 0.355556C11.1213 0 11.6459 -0.0888889 12.0656 0.0888889C12.4852 0.266667 12.5902 0.711111 12.3803 1.06667L4.82622 12.1778L12.1705 22.9333H22.4525C22.8721 22.9333 23.2918 23.2889 23.2918 23.6444C23.2918 24 22.8721 24.3556 22.3475 24.3556Z" fill="#3F3B3D"/>
<path d="M14.2689 20.8C14.059 20.8 13.7443 20.7111 13.5344 20.4444L8.18361 12.5333C8.07869 12.3556 8.07869 12.0889 8.18361 11.8222L16.0525 0.355556C16.1574 0.177778 16.4721 0 16.7869 0H32.4197C32.8393 0 33.259 0.355556 33.259 0.711111C33.259 1.06667 32.8393 1.42222 32.4197 1.42222H17.2066L9.8623 12.1778L15.0033 19.7333C15.2131 20.0889 15.1082 20.4444 14.6885 20.7111C14.5836 20.8 14.4787 20.8 14.2689 20.8Z" fill="#3F3B3D"/>
<path d="M42.7016 16.7112C42.4918 16.7112 42.177 16.6223 41.9672 16.3556L34.518 5.24449H19.8295L14.6885 12.8C14.4787 13.1556 13.9541 13.2445 13.5344 13.0667C13.1147 12.8889 13.0098 12.4445 13.2197 12.0889L18.5705 4.17782C18.6754 4.00004 18.9902 3.82227 19.3049 3.82227H34.9377C35.2525 3.82227 35.4623 3.91115 35.6721 4.17782L43.4361 15.6445C43.6459 16 43.541 16.3556 43.1213 16.6223C43.0164 16.6223 42.9115 16.7112 42.7016 16.7112Z" fill="#3F3B3D"/>
<path d="M32.4197 32.0001C32.3148 32.0001 32.2098 31.9112 32 31.9112C31.5803 31.7334 31.4754 31.289 31.6853 30.9334L39.2394 19.8223L31.8951 9.06675H21.718C21.2984 9.06675 20.8787 8.7112 20.8787 8.35564C20.8787 8.00009 21.2984 7.64453 21.718 7.64453H32.4197C32.7344 7.64453 32.9443 7.73342 33.1541 8.00009L40.918 19.4668C41.023 19.6445 41.023 19.9112 40.918 20.1779L33.1541 31.6445C33.0492 31.8223 32.7344 32.0001 32.4197 32.0001Z" fill="#3F3B3D"/>
<path d="M27.2787 31.9113H11.6459C11.2262 31.9113 10.8066 31.5558 10.8066 31.2002C10.8066 30.8447 11.2262 30.4891 11.6459 30.4891H26.859L34.2033 19.7336L29.0623 12.178C28.8525 11.8224 28.9574 11.4669 29.3771 11.2002C29.7967 11.0224 30.2164 11.1113 30.5312 11.4669L35.882 19.378C35.9869 19.5558 35.9869 19.8224 35.882 20.0891L28.0131 31.5558C27.9082 31.8224 27.5935 31.9113 27.2787 31.9113Z" fill="#3F3B3D"/>
<path d="M24.8656 28.0891H9.12787C8.81312 28.0891 8.60328 28.0002 8.39344 27.7335L0.629509 16.3557C0.419673 16.0002 0.524591 15.5557 0.839345 15.378C1.25902 15.2002 1.67869 15.2891 1.99344 15.6446L9.54754 26.7557H24.2361L29.377 19.2002C29.5869 18.8446 30.1115 18.7557 30.5311 18.9335C30.9508 19.1113 31.0557 19.5557 30.8459 19.9113L25.4951 27.7335C25.2852 28.0002 25.0754 28.0891 24.8656 28.0891Z" fill="#3F3B3D"/>
<path d="M71.0295 13.6H69.0361C68.5115 12.2667 67.6721 11.2 66.4131 10.4C65.1541 9.51112 63.6852 9.06668 61.9016 9.06668C59.5934 9.06668 57.7049 9.77779 56.2361 11.1111C54.7672 12.4445 54.0328 14.2222 54.0328 16.4445C54.0328 18.6667 54.7672 20.3556 56.2361 21.7778C57.7049 23.2 59.4885 23.8222 61.9016 23.8222C63.5803 23.8222 65.1541 23.3778 66.4131 22.4889C67.5672 21.6 68.5115 20.5333 69.0361 19.2889H70.7147H73.3377C72.7082 21.4222 71.3443 23.2 69.4557 24.6222C67.5672 26.0445 65.0492 26.7556 62.0065 26.7556C58.2295 26.7556 55.2918 25.7778 53.0885 23.7333C50.7803 21.7778 49.6262 19.2889 49.6262 16.3556C49.6262 13.4222 50.7803 11.0222 53.0885 8.97779C55.2918 7.02223 58.3344 5.95557 62.0065 5.95557C65.0492 5.95557 67.5672 6.66668 69.4557 8.0889C71.4492 9.51112 72.7082 11.2889 73.3377 13.4222H71.0295V13.6Z" fill="#3F3B3D"/>
<path d="M80.8918 4.17773V6.57773V9.77773V10.9333V13.7777V16.8V22.2222V26.4888H76.6951V22.2222V16.6222V13.6V10.6666V6.22218V4.17773H80.8918Z" fill="#3F3B3D"/>
<path d="M87.3967 12.1778C89.1803 10.5778 91.5934 9.77783 94.5311 9.77783C97.4688 9.77783 99.777 10.5778 101.666 12.1778C103.554 13.7778 104.393 15.8223 104.393 18.2223V18.6667C104.393 18.8445 104.289 19.0223 104.289 19.1112H102.61H101.875H99.9869H89.0754C89.2852 20.3556 89.8098 21.3334 90.6492 22.1334C91.6984 23.1112 93.1672 23.6445 94.9508 23.6445C96 23.6445 96.9443 23.4667 97.5738 23.0223C98.3082 22.6667 98.9377 22.1334 99.3574 21.5112H99.882H100.092H101.666H104.079C103.344 23.0223 102.19 24.2667 100.616 25.1556C99.0426 26.0445 97.0492 26.4889 94.8459 26.4889C91.6984 26.4889 89.2852 25.6889 87.5016 24.0889C85.6131 22.4889 84.7738 20.4445 84.7738 18.0445C84.7738 15.7334 85.718 13.7778 87.3967 12.1778ZM100.092 16.8889C99.882 15.8223 99.4623 14.9334 98.7279 14.2223C97.7836 13.2445 96.4197 12.7112 94.6361 12.7112C92.8525 12.7112 91.4885 13.1556 90.5443 14.2223C89.8098 14.9334 89.3902 15.8223 89.1803 16.8889H100.092Z" fill="#3F3B3D"/>
<path d="M109.744 12.1778C111.633 10.5778 114.046 9.77783 117.193 9.77783C120.341 9.77783 122.859 10.5778 124.643 12.1778C126.531 13.7778 127.37 15.8223 127.37 18.2223C127.37 20.6223 126.531 22.7556 124.643 24.2667C122.859 25.8667 120.341 26.6667 117.193 26.6667H117.089C113.941 26.6667 111.423 25.8667 109.639 24.2667C107.751 22.6667 106.911 20.6223 106.911 18.2223C107.016 15.7334 107.961 13.7778 109.744 12.1778ZM121.495 14.2223C120.446 13.2445 118.977 12.6223 117.193 12.6223C115.41 12.6223 114.046 13.1556 112.892 14.2223C111.843 15.2001 111.213 16.6223 111.213 18.2223C111.213 19.8223 111.738 21.1556 112.892 22.2223C113.941 23.2001 115.41 23.7334 117.193 23.7334C118.977 23.7334 120.446 23.2889 121.495 22.2223C122.544 21.2445 123.174 19.8223 123.174 18.2223C123.174 16.6223 122.544 15.2889 121.495 14.2223Z" fill="#3F3B3D"/>
</svg>
