<svg width="128" height="32" viewBox="0 0 128 32" fill="none" xmlns="http://www.w3.org/2000/svg">
<path d="M24.1951 19.111C23.2585 19.4665 22.7903 20.0887 22.7903 20.7999C22.7903 21.4221 23.2585 21.9554 24.039 22.311C24.9756 22.6665 26.0683 22.9332 27.6293 22.9332C29.9707 22.9332 31.6878 22.5776 32.9366 21.8665C34.1854 21.1554 34.8098 20.2665 34.9659 19.111V18.5776H28.0976C26.3805 18.5776 25.1317 18.7554 24.1951 19.111Z" fill="#3F3B3D"/>
<path d="M77.7366 19.111C76.8 19.4665 76.3317 20.0887 76.3317 20.7999C76.3317 21.4221 76.8 21.9554 77.5805 22.311C78.5171 22.6665 79.6098 22.9332 81.1707 22.9332C83.5122 22.9332 85.2293 22.5776 86.4781 21.8665C87.7268 21.1554 88.3512 20.2665 88.5073 19.111V18.5776H81.639C79.922 18.5776 78.6732 18.7554 77.7366 19.111Z" fill="#3F3B3D"/>
<path d="M127.376 14.7556C127.376 10.8444 121.912 7.82222 115.2 7.82222C114.576 7.82222 113.795 7.82222 113.171 7.91111C113.327 7.64444 113.327 7.28889 113.327 7.02222C113.327 3.82222 108.644 1.24444 103.18 1.24444C98.4976 1.24444 94.439 3.02222 93.3463 5.51111C91.6293 5.24444 89.9122 5.15556 88.1951 5.15556C86.4781 5.15556 84.761 5.33333 83.0439 5.51111C82.1073 4.35556 79.922 3.55556 77.5805 3.55556C76.1756 3.55556 74.9268 3.82222 73.8341 4.26667C73.0537 1.77778 69.3073 0 64.9366 0C60.4098 0 56.6634 1.86667 56.039 4.35556C53.3854 3.11111 49.7951 2.4 46.2049 2.4C41.6781 2.4 37.6195 3.46667 34.8098 5.24444C32.7805 4.97778 30.7512 4.71111 28.5659 4.71111C24.5073 4.71111 20.761 5.24444 17.4829 6.31111C15.922 5.86667 14.2049 5.6 12.3317 5.6C5.93171 5.6 0.780487 8.62222 0.780487 12.1778C0.780487 14.2222 2.34146 16 4.83902 17.1556C4.83902 17.5111 4.68293 17.9556 4.68293 18.4C4.52683 25.9556 15.2976 32 28.5659 32C32.6244 32 36.3707 31.4667 39.4927 30.4889C41.5219 31.1111 44.0195 31.4667 46.5171 31.4667C51.8244 31.4667 56.1951 29.8667 58.8488 27.4667C61.0341 28.8 64 29.6 67.278 29.6C69.4634 29.6 71.6488 29.2444 73.3659 28.6222C77.1122 30.4889 82.1073 31.6444 87.2585 31.6444C92.2537 31.6444 96.7805 30.6667 100.371 28.9778C102.556 30.2222 105.522 30.9333 108.956 30.9333C115.824 30.9333 121.132 27.8222 121.132 24C121.132 22.9333 120.663 21.9556 120.039 21.0667C124.41 20.0889 127.376 17.6 127.376 14.7556ZM43.239 25.2444H40.2732C38.5561 25.2444 37.3073 25.0667 36.5268 24.6222C35.7463 24.1778 35.4341 23.6444 35.4341 22.8444C33.4049 24.5333 30.5951 25.4222 26.8488 25.4222C23.8829 25.4222 21.5415 25.0667 19.8244 24.2667C18.1073 23.4667 17.1707 22.4 17.1707 21.0667C17.1707 19.5556 18.1073 18.4 19.9805 17.5111C21.8537 16.7111 24.6634 16.2667 28.2537 16.2667H34.8098V15.3778C34.8098 14.5778 34.3415 13.8667 33.2488 13.4222C32.1561 12.9778 30.7512 12.7111 29.0341 12.7111C27.4732 12.7111 26.0683 12.8889 25.1317 13.3333C24.039 13.6889 23.4146 14.2222 23.2585 14.9333H17.7951C18.1073 13.4222 19.2 12.2667 21.2293 11.4667C23.2585 10.6667 25.9122 10.2222 29.1902 10.2222C32.6244 10.2222 35.4341 10.6667 37.3073 11.6444C39.1805 12.5333 40.1171 13.9556 40.1171 15.6444V21.4222C40.1171 22.1333 40.7415 22.4889 41.8341 22.4889L43.239 22.4C43.239 22.4889 43.239 25.2444 43.239 25.2444ZM59.4732 13.3333H56.9756C54.6341 13.3333 53.0732 13.7778 51.9805 14.5778C50.8878 15.3778 50.4195 16.5333 50.4195 17.7778V25.1556H44.9561V10.4H49.9512L50.5756 12.6222C51.3561 11.9111 52.2927 11.3778 53.5415 11.0222C54.7902 10.6667 56.3512 10.4 58.3805 10.4H59.6293C59.4732 10.4 59.4732 13.3333 59.4732 13.3333ZM67.4342 25.2444H61.9707V10.4H67.4342V25.2444ZM67.122 7.64444C66.4976 8 65.7171 8.17778 64.7805 8.17778C63.8439 8.17778 63.0634 8 62.439 7.64444C61.8146 7.28889 61.5024 6.84444 61.5024 6.31111C61.5024 5.77778 61.8146 5.33333 62.439 5.06667C63.0634 4.71111 63.8439 4.53333 64.7805 4.53333C65.7171 4.44444 66.4976 4.62222 67.122 5.06667C67.7463 5.42222 68.0585 5.86667 68.0585 6.4C68.0585 6.93333 67.7463 7.28889 67.122 7.64444ZM96.6244 25.2444H93.6585C91.9415 25.2444 90.6927 25.0667 89.9122 24.6222C89.1317 24.1778 88.8195 23.6444 88.8195 22.8444C86.7903 24.5333 83.9805 25.4222 80.2342 25.4222C77.2683 25.4222 74.9268 25.0667 73.2098 24.2667C71.4927 23.4667 70.5561 22.4 70.5561 21.0667C70.5561 19.5556 71.4927 18.4 73.3659 17.5111C75.239 16.7111 78.0488 16.2667 81.639 16.2667H88.1951V15.3778C88.1951 14.5778 87.7268 13.8667 86.6341 13.4222C85.5415 12.9778 84.1366 12.7111 82.4195 12.7111C80.8585 12.7111 79.4537 12.8889 78.5171 13.3333C77.4244 13.6889 76.8 14.2222 76.6439 14.9333H71.1805C71.4927 13.4222 72.5854 12.2667 74.6146 11.4667C76.6439 10.6667 79.2976 10.2222 82.5756 10.2222C86.0098 10.2222 88.8195 10.6667 90.6927 11.6444C92.5659 12.5333 93.5024 13.9556 93.5024 15.6444V21.4222C93.5024 22.1333 94.1268 22.4889 95.2195 22.4889L96.6244 22.4C96.6244 22.4889 96.6244 25.2444 96.6244 25.2444ZM105.054 25.2444H99.5902V4.97778H105.054V25.2444Z" fill="#3F3B3D"/>
</svg>
