<svg width="128" height="32" viewBox="0 0 128 32" fill="none" xmlns="http://www.w3.org/2000/svg">
<path d="M3.87283 0.710938L10.6339 23.9998L16.6072 3.02205L22.7118 24.0887L29.2759 0.710938H31.1139L22.3836 31.6443H21.2677L15.6882 12.4443L10.3056 31.5554H8.99283L0.131287 0.710938H3.87283Z" fill="#3F3B3D"/>
<path d="M38.9251 0L49.559 31.2889H45.6862L42.2072 21.0667H32.5579L29.0133 31.2889H27.1097L38.0062 0H38.9251ZM33.2144 19.1111H41.5508L37.4154 7.11111L33.2144 19.1111Z" fill="#3F3B3D"/>
<path d="M53.0379 0.710938H56.7795V29.3332H68.1354V31.2887H52.9723V0.710938H53.0379Z" fill="#3F3B3D"/>
<path d="M105.223 0.710938V2.66649H93.3416V13.6887H101.284V15.6443H93.3416V29.3332H105.223V31.2887H89.4688V0.710938H105.223Z" fill="#3F3B3D"/>
<path d="M109.227 0.710938H111.327L126.096 23.1109H126.228V0.710938H127.869V31.9998H127.081L111.065 7.19983H110.933V31.3776H109.161L109.227 0.710938Z" fill="#3F3B3D"/>
<path d="M84.9395 9.42207C84.2831 7.5554 83.3641 5.77763 82.0513 4.3554C80.9354 3.11096 79.4913 2.13318 77.8503 1.51096C76.2092 0.888737 74.1744 0.62207 71.8113 0.62207H64.2626V24.7998H68.1354V2.93318H72.2051C73.5836 2.93318 74.8308 3.19985 75.881 3.91096C77.0626 4.53318 77.9815 5.42207 78.7692 6.57763C79.5569 7.73318 80.2133 9.1554 80.6728 10.6665C81.1323 12.2665 81.3292 14.0443 81.3292 15.911C81.3292 18.0443 81.1323 19.911 80.6072 21.5998C80.0821 23.2887 79.4256 24.6221 78.638 25.6887C77.7846 26.7554 76.8 27.6443 75.6841 28.2665C74.5026 28.8887 73.3867 29.1554 72.0739 29.1554H71.4174V31.3776H72.6646C74.7651 31.3776 76.6687 31.0221 78.2441 30.1332C79.8195 29.3332 81.198 28.1776 82.3795 26.7554C83.4954 25.4221 84.3487 23.7332 84.9395 21.7776C85.5303 19.911 85.7928 17.8665 85.7928 15.7332C85.8585 13.4221 85.5959 11.3776 84.9395 9.42207Z" fill="#3F3B3D"/>
</svg>
