<svg width="170" height="24" viewBox="0 0 170 24" fill="none" xmlns="http://www.w3.org/2000/svg">
<g clip-path="url(#clip0_4_2050)">
<path d="M45.0283 8.57129H62.179V10.4045H55.4261V20.7389H51.7247V10.4045H45L45.0283 8.57129ZM61.4444 11.9296H64.6089V13.633H64.6655C64.7785 13.3897 64.9763 13.1625 65.2588 12.9354C65.5414 12.7083 65.8804 12.4974 66.3042 12.3189C66.6998 12.1243 67.1519 11.9782 67.6605 11.8647C68.1408 11.7511 68.6494 11.6862 69.158 11.6862C69.5536 11.6862 69.8361 11.7024 69.9774 11.7024C70.1187 11.7187 70.2882 11.7349 70.4295 11.7349V13.6006C70.2034 13.5681 69.9491 13.5519 69.6948 13.5357C69.4405 13.5195 69.2145 13.5032 68.9602 13.5032C68.3951 13.5032 67.8583 13.5681 67.3497 13.6979C66.8411 13.8277 66.4173 14.0224 66.0217 14.2657C65.6544 14.5253 65.3436 14.8336 65.1175 15.2067C64.8915 15.5799 64.7785 16.0179 64.7785 16.5046V20.6903H61.3879L61.4444 11.9296ZM85.9697 20.7389H82.6356V19.5059H82.5791C82.1553 19.9602 81.5337 20.3009 80.7143 20.5767C79.8949 20.8525 79.0472 20.9823 78.1996 20.9823C76.1935 20.9823 74.7242 20.7065 73.8201 20.1224C72.9159 19.5546 72.4638 18.6785 72.4638 17.5267V11.9296H75.8544V17.332C75.8544 18.1107 76.1087 18.6623 76.6456 18.9705C77.1542 19.2951 77.8888 19.4573 78.8212 19.4573C79.5276 19.4573 80.1209 19.3924 80.6013 19.2626C81.0816 19.1328 81.4772 18.9705 81.7597 18.7596C82.0705 18.5488 82.2683 18.2892 82.4096 17.9972C82.5509 17.7051 82.6074 17.3807 82.6074 17.04V11.9296H85.998V20.7389H85.9697ZM91.7337 17.916C91.8467 18.4839 92.2141 18.8732 92.8639 19.1166C93.5138 19.3437 94.3049 19.4573 95.2091 19.4573C95.5199 19.4573 95.8872 19.4411 96.2828 19.4086C96.6783 19.3761 97.0739 19.3275 97.413 19.2464C97.7803 19.1652 98.0628 19.0517 98.2889 18.8895C98.5149 18.7272 98.6279 18.5325 98.5997 18.2892C98.5714 18.0458 98.4302 17.8349 98.1193 17.6727C97.8085 17.5104 97.4412 17.3969 96.9892 17.2833C96.5371 17.186 96.0002 17.1049 95.4069 17.04C94.8135 16.9751 94.2202 16.894 93.5986 16.8128C92.9769 16.7317 92.3553 16.6344 91.762 16.5208C91.1686 16.4072 90.66 16.2612 90.1797 16.0503C89.7276 15.8556 89.3321 15.6123 89.0778 15.304C88.7952 14.9958 88.6539 14.6389 88.6539 14.1846C88.6539 13.6979 88.8517 13.3085 89.2755 12.9841C89.6711 12.6596 90.208 12.4 90.8296 12.2053C91.4512 12.0107 92.1576 11.8647 92.9204 11.7836C93.6833 11.7024 94.4179 11.67 95.0961 11.67C95.8872 11.67 96.6501 11.7187 97.3565 11.816C98.0628 11.9133 98.741 12.0593 99.3061 12.2865C99.8994 12.4974 100.38 12.7894 100.747 13.1301C101.143 13.4708 101.369 13.8926 101.482 14.3793H97.9498C97.7803 13.9088 97.413 13.6006 96.8479 13.4384C96.2545 13.2761 95.6047 13.195 94.8418 13.195C94.6157 13.195 94.3049 13.2112 93.9941 13.2275C93.6551 13.2599 93.3725 13.2923 93.0617 13.3572C92.7792 13.4221 92.5249 13.5195 92.3271 13.633C92.1293 13.7466 92.0163 13.9088 92.0163 14.1035C92.0163 14.3469 92.1575 14.5253 92.4401 14.6713C92.7226 14.8173 93.09 14.9309 93.5703 15.0445C94.0224 15.1418 94.5592 15.2229 95.1526 15.2878C95.7459 15.3527 96.3675 15.4339 96.9892 15.5149C97.6108 15.5961 98.2041 15.6934 98.7975 15.807C99.3908 15.9205 99.9277 16.0665 100.38 16.2775C100.832 16.4721 101.227 16.7155 101.51 17.0075C101.792 17.2995 101.934 17.6727 101.934 18.0945C101.934 18.6136 101.736 19.0517 101.312 19.4248C100.888 19.7817 100.351 20.09 99.7016 20.3171C99.0518 20.5443 98.2889 20.7065 97.4977 20.82C96.6783 20.9174 95.8872 20.9823 95.0961 20.9823C94.1354 20.9823 93.2312 20.9174 92.4118 20.7876C91.5924 20.6578 90.8578 20.4631 90.2645 20.2198C89.6711 19.9602 89.1908 19.652 88.8517 19.2626C88.5127 18.8895 88.3149 18.4352 88.2866 17.8998H91.7055V17.916H91.7337ZM102.894 11.9296H105.466V9.26889H108.856V11.9133H111.908V13.3572H108.856V18.062C108.856 18.2729 108.884 18.4352 108.913 18.5974C108.941 18.7435 109.026 18.8732 109.111 18.9705C109.224 19.0679 109.393 19.149 109.591 19.1977C109.817 19.2464 110.099 19.2788 110.495 19.2788C110.721 19.2788 110.975 19.2788 111.201 19.2626C111.427 19.2464 111.682 19.2301 111.908 19.1977V20.7065C111.54 20.7389 111.173 20.7552 110.806 20.7714C110.439 20.8038 110.099 20.8038 109.704 20.8038C108.8 20.8038 108.093 20.7552 107.557 20.6578C107.02 20.5605 106.596 20.4145 106.285 20.236C105.974 20.0413 105.776 19.8142 105.663 19.5384C105.55 19.2626 105.494 18.9219 105.466 18.565V13.3735H102.894V11.8971V11.9296ZM114.281 11.9296H117.474V13.1301H117.531C118.011 12.6109 118.661 12.254 119.508 12.0269C120.356 11.7997 121.26 11.6862 122.277 11.6862C123.492 11.6862 124.538 11.7997 125.442 12.0593C126.346 12.3027 127.081 12.6272 127.674 13.0652C128.267 13.487 128.719 13.99 129.002 14.5577C129.285 15.1256 129.454 15.7421 129.454 16.3748C129.454 16.9751 129.313 17.5429 129.059 18.0945C128.776 18.6461 128.38 19.149 127.844 19.5708C127.307 19.9927 126.629 20.3333 125.781 20.5929C124.933 20.8525 123.973 20.9823 122.842 20.9823C122.362 20.9823 121.854 20.9499 121.373 20.9012C120.893 20.8525 120.413 20.7714 119.96 20.6578C119.508 20.5443 119.085 20.3983 118.717 20.2198C118.322 20.0413 118.011 19.8304 117.757 19.6033H117.7V23.9999H114.309V11.9296H114.281ZM126.12 16.3424C126.12 15.953 126.035 15.5636 125.837 15.1905C125.668 14.8173 125.385 14.4929 125.018 14.2008C124.651 13.9088 124.199 13.6817 123.69 13.5032C123.153 13.3248 122.532 13.2437 121.854 13.2437C120.441 13.2437 119.367 13.5195 118.632 14.0873C117.926 14.6551 117.559 15.4176 117.559 16.3586C117.559 16.8128 117.644 17.2184 117.841 17.5916C118.039 17.9647 118.293 18.2892 118.689 18.565C119.056 18.8408 119.508 19.0517 120.045 19.2139C120.582 19.3761 121.175 19.4573 121.882 19.4573C122.673 19.4573 123.295 19.3599 123.831 19.1815C124.368 19.003 124.792 18.7596 125.159 18.4839C125.498 18.1919 125.753 17.8673 125.894 17.4942C126.035 17.1049 126.12 16.7317 126.12 16.3424ZM132.082 8.57129H135.472V10.4045H132.082V8.57129ZM132.082 11.9296H135.472V20.7389H132.082V11.9296ZM138.496 8.57129H141.886V20.7389H138.496V8.57129ZM152.228 20.9823C151.013 20.9823 149.911 20.8687 148.95 20.6253C147.989 20.382 147.198 20.0737 146.52 19.6682C145.87 19.2626 145.362 18.7597 145.023 18.1919C144.684 17.624 144.486 16.9913 144.486 16.3261C144.486 15.6609 144.655 15.0445 145.023 14.4767C145.362 13.9088 145.87 13.4221 146.52 13.0003C147.17 12.5947 147.989 12.2703 148.95 12.0431C149.911 11.816 151.013 11.6862 152.228 11.6862C153.443 11.6862 154.545 11.7997 155.505 12.0431C156.466 12.2703 157.257 12.5947 157.935 13.0003C158.585 13.4059 159.094 13.9088 159.433 14.4767C159.772 15.0445 159.969 15.6609 159.969 16.3261C159.969 17.0075 159.8 17.624 159.433 18.1919C159.065 18.7597 158.585 19.2464 157.935 19.6682C157.285 20.0737 156.466 20.3983 155.505 20.6253C154.545 20.8525 153.471 20.9823 152.228 20.9823ZM152.228 19.4411C152.962 19.4411 153.64 19.3437 154.177 19.1652C154.742 18.9868 155.166 18.7435 155.533 18.4514C155.901 18.1594 156.155 17.8187 156.325 17.4618C156.494 17.0887 156.579 16.7155 156.579 16.3261C156.579 15.953 156.494 15.5799 156.325 15.2067C156.155 14.8336 155.901 14.5091 155.533 14.2171C155.166 13.9251 154.714 13.6979 154.177 13.5195C153.612 13.341 152.962 13.2437 152.228 13.2437C151.493 13.2437 150.815 13.341 150.278 13.5195C149.713 13.6979 149.289 13.9413 148.922 14.2171C148.554 14.5091 148.3 14.8336 148.131 15.2067C147.961 15.5799 147.876 15.953 147.876 16.3261C147.876 16.7155 147.961 17.0887 148.131 17.4618C148.3 17.8349 148.554 18.1594 148.922 18.4514C149.289 18.7435 149.741 18.9868 150.278 19.1652C150.843 19.3599 151.493 19.4411 152.228 19.4411ZM160.987 11.9296H163.558V9.26889H166.948V11.9133H170V13.3572H166.948V18.062C166.948 18.2729 166.977 18.4352 167.005 18.5974C167.033 18.7435 167.118 18.8732 167.203 18.9705C167.316 19.0679 167.485 19.149 167.683 19.1977C167.909 19.2464 168.192 19.2788 168.587 19.2788C168.813 19.2788 169.068 19.2788 169.294 19.2626C169.52 19.2464 169.774 19.2301 170 19.1977V20.7065C169.633 20.7389 169.265 20.7552 168.898 20.7714C168.531 20.8038 168.192 20.8038 167.796 20.8038C166.892 20.8038 166.186 20.7552 165.649 20.6578C165.112 20.5605 164.688 20.4145 164.377 20.236C164.066 20.0413 163.869 19.8142 163.756 19.5384C163.643 19.2626 163.586 18.9219 163.558 18.565V13.3735H160.987V11.8971V11.9296Z" fill="black"/>
<path d="M41 8.51623H25.3361L20.5143 0L15.6639 8.51623L0 8.49988L12.6681 13.7695L7.81767 22.2857L20.4857 17.0161L33.1538 22.2857L28.3319 13.7695L41 8.51623Z" fill="#00B67A"/>
<path d="M29 15.7474L27.9038 13.7144L20 17.1429L29 15.7474Z" fill="#005128"/>
</g>
<defs>
<clipPath id="clip0_4_2050">
<rect width="170" height="24" fill="white"/>
</clipPath>
</defs>
</svg>
