<svg width="128" height="32" viewBox="0 0 128 32" fill="none" xmlns="http://www.w3.org/2000/svg">
<path d="M44.8831 10.7554C45.2987 10.7554 45.6312 10.7554 45.7143 10.8443C45.7974 10.9332 45.7974 11.0221 45.7974 11.3776C45.7974 11.5554 45.8805 11.8221 45.9636 11.8221C46.0467 11.8221 46.2961 11.7332 46.7117 11.3776C47.0441 11.1998 47.2935 10.9332 47.7922 10.8443C48.2078 10.7554 48.6234 10.6665 49.0389 10.6665C49.8701 10.6665 50.6182 11.0221 51.2831 11.6443C51.7818 12.0887 52.1974 12.7109 52.5299 13.5109C52.8623 14.3109 52.9454 15.0221 52.9454 15.9109C52.9454 17.7776 52.3636 19.1109 51.2 20.3554C50.2857 21.2443 49.3714 21.7776 48.2909 21.7776C47.7091 21.7776 47.2104 21.6887 46.5454 21.3332C46.4623 21.2443 46.3792 21.2443 46.213 21.2443C46.0467 21.2443 45.8805 21.4221 45.8805 21.8665C45.8805 22.3998 46.0467 22.8443 46.3792 23.0221C46.7117 23.1998 46.8779 23.4665 46.961 23.4665C47.0441 23.5554 47.0441 23.6443 47.0441 23.9109C47.0441 24.3554 46.8779 24.7109 46.2961 24.8887C45.8805 25.0665 45.2156 25.2443 44.3844 25.2443C42.9714 25.2443 41.6415 24.8887 40.561 24.2665C40.0623 23.9109 39.7299 23.6443 39.7299 23.1109C39.7299 22.9332 39.7299 22.7554 39.813 22.6665C39.8961 22.5776 39.9792 22.4887 40.3117 22.3109C40.6441 22.1332 40.8935 21.8665 40.8935 21.3332C40.9766 20.8887 40.9766 19.6443 41.0597 17.4221C41.0597 15.7332 40.9766 14.7554 40.8935 14.4887C40.8935 14.3998 40.8104 14.3998 40.8104 14.3998C40.8104 14.3998 40.7273 14.2221 40.3948 14.2221C40.2286 14.2221 39.9792 14.1332 39.8961 13.8665C39.813 13.6887 39.7299 13.5109 39.7299 13.2443C39.7299 12.9776 39.813 12.7109 40.0623 12.4443C40.2286 12.2665 40.561 11.9998 40.9766 11.8221C42.6389 11.1998 43.9688 10.7554 44.8831 10.7554ZM45.8805 14.7554L45.7974 17.6887C45.7974 17.7776 45.7974 17.8665 45.7974 18.0443C45.7974 18.2221 45.8805 18.4887 46.1299 18.5776C46.2961 18.6665 46.5454 18.7554 46.8779 18.7554C47.7922 18.7554 48.2909 17.9554 48.2909 16.3554C48.2909 15.2887 48.1247 14.6665 47.7091 14.2221C47.5428 14.0443 47.2104 13.7776 46.8779 13.7776C46.213 13.7776 45.8805 14.1332 45.8805 14.7554Z" fill="#3F3B3D"/>
<path d="M62.8363 16.5331H58.1818C58.0155 16.5331 57.8493 16.622 57.8493 16.8886C57.8493 17.3331 58.0155 17.7775 58.5974 18.222C59.1792 18.6664 59.5948 18.8442 60.0935 18.8442C60.4259 18.8442 60.8415 18.7553 61.174 18.6664C61.5896 18.5775 61.922 18.3108 62.1714 18.222C62.3376 18.0442 62.587 18.0442 62.6701 18.0442C62.8363 18.0442 63.0025 18.1331 63.1688 18.3997C63.335 18.5775 63.335 18.8442 63.335 19.1997C63.335 19.7331 63.0025 20.1775 62.4207 20.7108C61.4233 21.5997 60.0935 22.0442 58.7636 22.0442C57.3506 22.0442 56.2701 21.5997 55.1896 20.7108C54.6909 20.2664 54.3584 19.7331 54.109 19.1997C53.6935 18.3997 53.5272 17.5997 53.5272 16.622C53.5272 15.4664 53.8597 14.3108 54.5246 13.422C55.1064 12.5331 55.8545 11.9997 56.7688 11.5553C57.5168 11.1997 58.1818 11.1108 59.0129 11.1108C60.3428 11.1108 61.3402 11.5553 62.2545 12.2664C62.6701 12.7108 63.0857 13.1553 63.335 13.6886C63.6675 14.3108 63.8337 14.8442 63.8337 15.3775C63.8337 15.822 63.7506 16.2664 63.5012 16.5331C63.335 16.3553 63.1688 16.5331 62.8363 16.5331ZM58.4311 14.5775H59.4285C59.8441 14.5775 60.0103 14.3997 60.0103 13.9553C60.0103 13.5108 59.9272 13.3331 59.6779 12.9775C59.5116 12.7997 59.1792 12.622 58.8467 12.622C58.4311 12.622 58.0986 12.7108 57.9324 13.0664C57.7662 13.422 57.6 13.5997 57.6 13.9553C57.6 14.1331 57.5999 14.3108 57.6831 14.3997C58.0155 14.5775 58.1818 14.5775 58.4311 14.5775Z" fill="#3F3B3D"/>
<path d="M70.2337 13.5111V17.0666C70.2337 17.5111 70.3168 17.8666 70.5662 18.1333C70.7324 18.4888 70.9818 18.5777 71.3143 18.5777C71.6467 18.5777 71.8961 18.4888 72.3117 18.1333C72.4779 18.1333 72.6441 18.1333 72.7272 18.1333C72.8935 18.1333 73.0597 18.2222 73.1428 18.4888C73.2259 18.6666 73.3091 18.9333 73.3091 19.1111C73.3091 19.5555 73.1428 20 72.561 20.4444C71.6467 21.3333 70.4 21.7777 69.1532 21.7777C68.0727 21.7777 67.2415 21.4222 66.6597 20.8C66.0779 20.1777 65.6623 19.2888 65.6623 18.2222V13.2444C65.6623 13.0666 65.6623 13.0666 65.5792 12.8888C65.5792 12.8888 65.4961 12.8 65.2467 12.8H64.2493C64.0831 12.8 63.9168 12.8 63.8337 12.7111C63.7506 12.6222 63.7506 12.5333 63.7506 12.2666V11.8222C63.7506 11.6444 63.8337 11.4666 63.9168 11.3777L68.6545 8.26662C68.7376 8.17773 68.987 8.17773 69.0701 8.17773H69.9013C70.0675 8.17773 70.2337 8.17773 70.2337 8.26662C70.3168 8.35551 70.3168 8.4444 70.3168 8.71107V10.1333C70.3168 10.3111 70.3168 10.4888 70.4 10.5777C70.4831 10.6666 70.5662 10.6666 70.8155 10.6666H72.6441C72.8104 10.6666 73.0597 10.6666 73.1428 10.7555C73.2259 10.8444 73.2259 11.1111 73.2259 11.3777V12C73.2259 12.3555 73.2259 12.5333 73.1428 12.8C73.0597 12.8888 72.8104 12.9777 72.6441 12.9777H70.8155C70.6493 12.9777 70.4831 12.9777 70.4 13.0666C70.2337 13.1555 70.2337 13.2444 70.2337 13.5111Z" fill="#3F3B3D"/>
<path d="M77.7973 10.6665C78.1298 10.6665 78.7116 10.7554 79.3766 10.8443C79.5428 10.8443 79.709 10.8443 79.7922 10.8443C79.8753 10.8443 80.1246 10.7554 80.5402 10.6665C80.7064 10.5776 80.8727 10.5776 80.9558 10.5776C81.2883 10.5776 81.5376 10.7554 81.8701 11.1999C82.2025 11.5554 82.3688 11.8221 82.4519 12.2665C82.6181 12.711 82.6181 13.0665 82.6181 13.3332C82.6181 13.6887 82.535 13.8665 82.2857 14.1332C82.1194 14.311 81.8701 14.4887 81.5376 14.4887C81.3714 14.4887 81.122 14.3999 80.9558 14.311C80.7896 14.2221 80.4571 13.8665 80.0415 13.511C79.6259 13.0665 79.2103 12.8887 79.0441 12.8887C78.8779 12.8887 78.7116 12.9776 78.5454 13.0665C78.4623 13.1554 78.3792 13.4221 78.3792 13.5999C78.3792 13.9554 78.7116 14.2221 79.2935 14.5776C80.374 15.111 81.2883 15.6443 81.9532 16.2665C82.4519 16.7999 82.7844 17.4221 82.7844 18.2221C82.7844 19.1999 82.3688 20.0887 81.5376 20.711C80.7896 21.2443 80.0415 21.5999 79.0441 21.5999C78.7116 21.5999 78.2961 21.5999 77.6311 21.511C76.9662 21.3332 76.5506 21.3332 76.4675 21.3332C76.3844 21.3332 76.3012 21.3332 76.135 21.3332C75.9688 21.3332 75.8025 21.3332 75.7194 21.3332C75.387 21.3332 75.1376 21.2443 74.9714 21.1554C74.6389 20.9776 74.4727 20.5332 74.1402 19.8221C73.974 19.2887 73.8077 18.7554 73.8077 18.3999C73.8077 17.7776 73.974 17.4221 74.5558 17.4221C74.722 17.4221 74.9714 17.511 75.0545 17.5999C75.2207 17.6887 75.5532 18.0443 76.0519 18.6665C76.3844 19.0221 76.5506 19.1999 76.7999 19.2887C76.9662 19.3776 77.2155 19.4665 77.3818 19.4665C77.548 19.4665 77.7973 19.3776 77.8805 19.2887C77.9636 19.1999 78.0467 18.9332 78.0467 18.7554C78.0467 18.3999 77.7142 18.1332 77.2155 17.8665C76.135 17.3332 75.387 16.711 74.8883 16.1776C74.3896 15.5554 74.1402 14.8443 74.1402 14.1332C74.1402 13.2443 74.3064 12.5332 74.8883 11.9999C75.5532 11.111 76.5506 10.6665 77.7973 10.6665Z" fill="#3F3B3D"/>
<path d="M88.3532 10.7554C88.7688 10.7554 89.1013 10.7554 89.1844 10.8443C89.2675 10.9332 89.2675 11.0221 89.2675 11.3776C89.2675 11.5554 89.3506 11.8221 89.4337 11.8221C89.5168 11.8221 89.7662 11.7332 90.1818 11.3776C90.5142 11.1998 90.7636 10.9332 91.2623 10.8443C91.6779 10.7554 92.0935 10.6665 92.509 10.6665C93.3402 10.6665 94.0883 11.0221 94.7532 11.6443C95.2519 12.0887 95.6675 12.7109 96 13.5109C96.3324 14.3109 96.4155 15.0221 96.4155 15.9109C96.4155 17.7776 95.8337 19.1109 94.6701 20.3554C93.7558 21.2443 92.8415 21.7776 91.761 21.7776C91.1792 21.7776 90.6805 21.6887 90.0155 21.3332C89.9324 21.2443 89.8493 21.2443 89.6831 21.2443C89.5168 21.2443 89.3506 21.4221 89.3506 21.8665C89.3506 22.3998 89.5168 22.8443 89.8493 23.0221C90.1818 23.1998 90.348 23.4665 90.4311 23.4665C90.5142 23.5554 90.5142 23.6443 90.5142 23.9109C90.5142 24.3554 90.348 24.7109 89.7662 24.8887C89.3506 25.0665 88.6857 25.2443 87.8545 25.2443C86.4415 25.2443 85.1116 24.8887 84.0311 24.2665C83.5324 23.9109 83.2 23.6443 83.2 23.1109C83.2 22.9332 83.1999 22.7554 83.2831 22.6665C83.3662 22.5776 83.4493 22.4887 83.7818 22.3109C84.1142 22.1332 84.3636 21.8665 84.3636 21.3332C84.4467 20.8887 84.4467 19.6443 84.5298 17.4221C84.5298 15.7332 84.4467 14.7554 84.3636 14.4887C84.3636 14.3998 84.2805 14.3998 84.2805 14.3998C84.2805 14.3998 84.1974 14.2221 83.948 14.2221C83.7818 14.2221 83.5324 14.1332 83.4493 13.8665C83.3662 13.6887 83.2831 13.5109 83.2831 13.2443C83.2831 12.9776 83.3662 12.7109 83.6155 12.4443C83.7818 12.2665 84.1142 11.9998 84.5298 11.8221C86.1922 11.1998 87.3558 10.7554 88.3532 10.7554ZM89.3506 14.7554L89.2675 17.6887C89.2675 17.7776 89.2675 17.8665 89.2675 18.0443C89.2675 18.2221 89.3506 18.4887 89.6 18.5776C89.7662 18.6665 90.0155 18.7554 90.348 18.7554C91.2623 18.7554 91.761 17.9554 91.761 16.3554C91.761 15.2887 91.5948 14.6665 91.1792 14.2221C91.0129 14.0443 90.6805 13.7776 90.348 13.7776C89.6831 13.7776 89.3506 14.1332 89.3506 14.7554Z" fill="#3F3B3D"/>
<path d="M102.732 12.7999V16.2665C102.732 17.7776 102.732 18.6665 102.816 18.8443C102.816 19.0221 102.982 19.2887 103.314 19.3776C103.481 19.4665 103.73 19.5554 103.813 19.7332C103.896 19.8221 103.896 19.911 103.896 20.1776C103.896 20.3554 103.813 20.6221 103.73 20.7999C103.564 20.9776 103.314 21.1554 103.148 21.2443C102.649 21.3332 101.818 21.4221 100.738 21.4221C99.4078 21.4221 98.4935 21.3332 97.9948 21.0665C97.8286 20.9776 97.5792 20.8887 97.413 20.6221C97.2468 20.4443 97.2468 20.1776 97.2468 19.9999C97.2468 19.8221 97.2468 19.6443 97.3299 19.5554C97.413 19.4665 97.6624 19.3776 97.8286 19.1999C98.1611 19.111 98.2442 18.7554 98.3273 18.2221C98.4104 17.2443 98.4935 15.911 98.4935 14.2221C98.4935 12.5332 98.4935 11.3776 98.4104 10.8443C98.3273 10.311 98.0779 9.95541 97.6624 9.77764C97.3299 9.59986 97.1637 9.42208 97.0805 9.33319C96.9974 9.2443 96.9143 9.15541 96.9143 8.88875C96.9143 8.53319 97.0805 8.26653 97.413 7.99986C97.7455 7.82208 98.2442 7.46653 98.9091 7.19986C99.4078 7.11097 99.9065 6.8443 100.738 6.75541C101.486 6.66653 102.068 6.57764 102.317 6.57764C102.816 6.57764 103.148 6.93319 103.148 7.6443C103.148 7.82208 103.148 8.4443 103.065 9.2443C102.816 10.6665 102.816 11.8221 102.732 12.7999Z" fill="#3F3B3D"/>
<path d="M110.213 10.6665C111.293 10.6665 112.374 11.0221 113.122 11.6443C113.538 11.9998 113.87 12.4443 114.036 12.7998C114.203 13.2443 114.369 13.7776 114.369 14.4887V16.0887C114.369 17.1554 114.452 17.9554 114.535 18.2221C114.618 18.3109 114.618 18.3998 114.701 18.5776C114.784 18.5776 114.868 18.6665 115.117 18.6665C115.366 18.6665 115.449 18.8443 115.449 19.1109C115.449 19.4665 115.366 19.7332 115.034 20.1776C114.701 20.5332 114.452 20.7998 114.036 21.1554C113.538 21.5109 113.039 21.5998 112.457 21.5998C111.709 21.5998 111.21 21.4221 110.878 20.7998C110.795 20.6221 110.545 20.4443 110.462 20.4443C110.379 20.4443 110.13 20.5332 109.964 20.6221C109.216 21.1554 108.551 21.4221 107.719 21.4221C106.805 21.4221 106.14 21.2443 105.558 20.7998C105.226 20.6221 104.977 20.1776 104.727 19.7332C104.561 19.2887 104.395 18.8443 104.395 18.3998C104.395 17.5998 104.727 16.9776 105.226 16.4443C106.14 15.5554 107.47 15.1109 109.132 15.0221C109.548 15.0221 109.714 15.0221 109.88 14.9332C109.964 14.8443 109.964 14.5776 109.964 14.3998C109.964 13.5998 109.88 13.0665 109.797 12.7998C109.714 12.5332 109.382 12.2665 109.049 12.2665C108.883 12.2665 108.634 12.3554 108.551 12.4443C108.384 12.5332 108.218 12.7998 107.969 13.2443C107.387 14.1332 106.722 14.6665 106.14 14.6665C105.808 14.6665 105.558 14.5776 105.309 14.3109C105.06 14.0443 104.977 13.8665 104.977 13.4221C104.977 13.0665 105.06 12.7998 105.392 12.4443C105.725 12.0887 105.974 11.8221 106.39 11.5554C107.636 11.0221 108.883 10.6665 110.213 10.6665ZM109.548 16.7998C109.216 16.7998 109.049 16.8887 108.717 17.2443C108.551 17.4221 108.384 17.7776 108.384 18.1332C108.384 18.4887 108.468 18.7554 108.551 19.0221C108.717 19.1998 108.966 19.3776 109.132 19.3776C109.631 19.3776 109.964 18.9332 109.964 17.9554C109.964 17.5109 109.964 17.3332 109.88 17.1554C109.88 16.8887 109.797 16.7998 109.548 16.7998Z" fill="#3F3B3D"/>
<path d="M125.008 15.9999L123.678 19.911C123.345 20.8887 123.096 21.5999 122.68 22.311C122.348 22.9332 121.932 23.3776 121.6 23.8221C120.686 24.711 119.688 25.1554 118.442 25.1554C117.444 25.1554 116.613 24.7999 116.031 24.2665C115.532 23.8221 115.283 23.2887 115.283 22.6665C115.283 22.1332 115.449 21.6887 115.782 21.2443C116.114 20.8887 116.53 20.711 117.029 20.711C117.527 20.711 117.943 20.8887 118.109 21.2443C118.192 21.3332 118.275 21.5999 118.442 21.6887C118.442 21.7776 118.525 22.1332 118.608 22.4887C118.691 22.8443 118.774 22.9332 119.106 22.9332C119.273 22.9332 119.522 22.8443 119.605 22.5776C119.688 22.3999 119.771 22.1332 119.771 21.7776C119.771 21.4221 119.605 20.8887 119.273 20.0887L116.862 14.5776C116.53 14.0443 116.447 13.5999 116.28 13.511C116.197 13.4221 115.865 13.1554 115.449 12.9776C115.366 12.8887 115.283 12.7999 115.117 12.6221C114.951 12.4443 115.034 12.2665 115.034 12.1776C115.034 11.5554 115.616 11.111 116.779 10.8443C117.61 10.7554 118.525 10.6665 119.522 10.6665C120.27 10.6665 120.769 10.7554 121.101 10.8443C121.6 11.0221 121.932 11.3776 121.932 11.911C121.932 12.0887 121.849 12.3554 121.766 12.5332C121.683 12.711 121.6 12.9776 121.6 13.1554C121.6 13.3332 121.6 13.511 121.683 13.6887C121.766 13.8665 121.849 14.2221 122.099 14.6665C122.431 15.1999 122.597 15.4665 122.847 15.4665C123.013 15.4665 123.262 15.2887 123.429 14.8443C123.595 14.3999 123.761 13.9554 123.761 13.511C123.761 13.1554 123.678 12.9776 123.595 12.711C123.262 12.3554 123.179 12.1776 123.179 11.8221C123.179 11.4665 123.345 11.1999 123.927 10.9332C124.343 10.7554 124.925 10.5776 125.756 10.5776C127.169 10.5776 127.917 10.9332 127.917 11.6443C127.917 11.8221 127.834 12.0887 127.751 12.2665C127.667 12.3554 127.335 12.6221 126.919 12.711C126.587 12.7999 126.338 13.0665 126.088 13.3332C125.756 14.0443 125.423 14.8443 125.008 15.9999Z" fill="#3F3B3D"/>
<path d="M5.56884 27.7335C4.73768 27.9113 4.48833 28.1779 3.98962 28.6224C3.98962 29.4224 4.07274 30.0446 4.07274 30.9335C4.07274 31.3779 4.48833 32.089 5.48573 31.4668C6.15066 30.9335 5.8182 28.4446 6.73248 27.3779C6.3169 27.3779 5.98443 27.6446 5.56884 27.7335Z" fill="#3F3B3D"/>
<path d="M33.2467 17.3333C32.1662 17.4222 28.5922 17.5111 26.5143 16C26.5143 16.0889 26.5974 16.1778 26.6805 16.3556C27.9273 18.2222 29.6727 19.2 31.2519 19.5556C32 19.4667 32.5818 19.3778 33.2467 19.0222C34.4935 18.6667 33.9948 17.2444 33.2467 17.3333Z" fill="#3F3B3D"/>
<path d="M14.6286 3.20015C16.2078 2.40015 18.3688 3.82238 20.2805 6.40015C20.613 6.31126 20.8624 6.0446 21.1948 5.95571C19.1169 3.20015 16.7065 1.77793 14.9611 2.57793C14.213 2.93349 13.7143 3.46682 13.3818 4.26682C13.7974 3.73349 14.213 3.46682 14.6286 3.20015Z" fill="#3F3B3D"/>
<path d="M24.5195 22.0444C24.187 23.4667 23.5221 24.5333 22.6078 24.9778C22.1091 25.1555 21.6104 25.1555 21.1117 25.0667C21.9429 25.4222 22.6078 25.4222 23.3559 25.0667C24.2701 24.6222 24.9351 23.6444 25.3507 22.4C25.0182 22.2222 24.6857 22.1333 24.5195 22.0444Z" fill="#3F3B3D"/>
<path d="M21.1948 4.53339C18.9507 1.95562 16.4572 0.622283 14.2961 1.51117C10.9715 2.93339 10.2234 9.68895 12.7169 16.5334C15.2104 23.3778 19.9481 27.7334 23.3559 26.4001C24.6857 25.8667 25.6 24.5334 26.0156 22.7556C26.1818 22.1334 26.5143 26.6667 23.0234 28.089C19.4494 29.6001 14.3792 24.7112 11.5533 17.1556C8.7273 9.51117 9.55846 2.04451 13.1325 0.444505C15.3766 -0.799939 18.5351 1.06673 21.1948 4.53339Z" fill="#3F3B3D"/>
<path d="M10.1403 16.8888C8.39484 11.9999 8.22861 7.11105 9.55848 4.2666C7.97926 5.24438 6.73251 9.24438 7.97926 14.6666C6.06757 15.8222 5.15329 16.1777 3.15848 15.6444C1.57926 15.1999 0.997442 13.511 0.914325 13.6888C-0.498662 16.6222 2.65978 18.8444 4.48835 18.7555C4.32212 21.8666 2.49355 23.5555 1.66238 24.711C0.664974 26.311 0.415623 28.3555 0.24939 31.111C0.24939 31.5555 0.581857 32.4444 1.57926 31.911C2.16108 31.5555 2.16108 29.0666 3.32471 28.0888C4.32212 27.1999 4.7377 27.2888 6.64939 26.5777C8.81043 25.6888 10.7221 24.2666 10.8884 22.3999C10.9715 22.5777 11.2208 22.9333 11.3871 23.1999C14.0468 27.2888 16.2078 26.5777 16.2078 26.5777C13.5481 24.4444 11.5533 20.711 10.1403 16.8888Z" fill="#3F3B3D"/>
<path d="M32.2493 4.44427C32.4156 3.82205 32.748 2.31094 32.0831 1.77761C31.7506 1.59983 31.335 2.57761 30.3376 3.19983C30.8363 3.28872 31.7506 3.73316 32.2493 4.44427Z" fill="#3F3B3D"/>
<path d="M33.6624 20.8002C32.1663 20.8002 28.1766 20.0002 26.0987 16.8002C24.1039 13.6002 26.265 10.1335 29.9221 11.2002C35.6572 12.8891 35.9065 9.68907 35.7403 8.62241C34.0779 8.00018 32.8312 7.82241 32.665 6.66685C32.1663 4.17796 29.9221 4.00018 29.3403 3.64463C29.2572 3.20018 28.7585 1.24463 27.7611 1.24463C27.2624 1.24463 27.6779 3.28907 26.1818 4.7113C21.4442 6.66685 16.7065 9.15574 12.6338 11.7335C12.8 13.1557 13.2156 14.6669 13.8805 16.178C14.3792 17.6891 15.1273 19.1113 15.7922 20.2668C16.7896 20.2668 18.0364 20.2668 19.6156 20.3557C24.9351 20.5335 28.8416 23.5557 33.5792 22.7557C34.6598 22.3113 34.4104 20.8891 33.6624 20.8002ZM30.5039 6.22241C30.8364 6.22241 30.9195 6.40018 30.9195 6.75574C30.9195 7.1113 30.7533 7.20018 30.4208 7.20018C30.0883 7.20018 30.0052 7.02241 30.0052 6.66685C30.1715 6.48907 30.3377 6.22241 30.5039 6.22241Z" fill="#3F3B3D"/>
</svg>
