<svg width="18" height="18" viewBox="0 0 18 18" fill="none" xmlns="http://www.w3.org/2000/svg">
<path d="M0 9C0 4.02944 4.02944 0 9 0C13.9706 0 18 4.02944 18 9C18 13.9706 13.9706 18 9 18C4.02944 18 0 13.9706 0 9Z" fill="#F06807"/>
<path d="M11.4653 8.4668V9.65918C11.4653 10.3001 11.408 10.8408 11.2935 11.2812C11.1789 11.7217 11.0142 12.0762 10.7993 12.3447C10.5845 12.6133 10.3249 12.8084 10.0205 12.9302C9.71973 13.0483 9.37956 13.1074 9 13.1074C8.69922 13.1074 8.42171 13.0698 8.16748 12.9946C7.91325 12.9194 7.68408 12.7995 7.47998 12.6348C7.27946 12.4665 7.10758 12.248 6.96436 11.9795C6.82113 11.7109 6.71191 11.3851 6.63672 11.002C6.56152 10.6188 6.52393 10.1712 6.52393 9.65918V8.4668C6.52393 7.82585 6.58122 7.28874 6.6958 6.85547C6.81396 6.4222 6.98047 6.07487 7.19531 5.81348C7.41016 5.5485 7.66797 5.35872 7.96875 5.24414C8.27311 5.12956 8.61328 5.07227 8.98926 5.07227C9.29362 5.07227 9.57292 5.10986 9.82715 5.18506C10.085 5.25667 10.3141 5.37305 10.5146 5.53418C10.7152 5.69173 10.8853 5.90299 11.0249 6.16797C11.1681 6.42936 11.2773 6.74984 11.3525 7.12939C11.4277 7.50895 11.4653 7.95475 11.4653 8.4668ZM10.4663 9.82031V8.30029C10.4663 7.94938 10.4448 7.64144 10.4019 7.37646C10.3625 7.10791 10.3034 6.87874 10.2246 6.68896C10.1458 6.49919 10.0456 6.34521 9.92383 6.22705C9.80566 6.10889 9.66781 6.02295 9.51025 5.96924C9.35628 5.91195 9.18262 5.8833 8.98926 5.8833C8.75293 5.8833 8.54346 5.92806 8.36084 6.01758C8.17822 6.10352 8.02425 6.24137 7.89893 6.43115C7.77718 6.62093 7.68408 6.86979 7.61963 7.17773C7.55518 7.48568 7.52295 7.85986 7.52295 8.30029V9.82031C7.52295 10.1712 7.54264 10.481 7.58203 10.7495C7.625 11.0181 7.68766 11.2508 7.77002 11.4478C7.85238 11.6411 7.95264 11.8005 8.0708 11.9258C8.18896 12.0511 8.32503 12.1442 8.479 12.2051C8.63656 12.2624 8.81022 12.291 9 12.291C9.24349 12.291 9.45654 12.2445 9.63916 12.1514C9.82178 12.0583 9.97396 11.9132 10.0957 11.7163C10.221 11.5158 10.3141 11.2598 10.375 10.9482C10.4359 10.6331 10.4663 10.2572 10.4663 9.82031Z" fill="white"/>
</svg>
