<svg width="60" height="16" viewBox="0 0 60 16" fill="none" xmlns="http://www.w3.org/2000/svg">
<path d="M22.3602 3.27246H19.051C18.8245 3.27246 18.6319 3.43731 18.5966 3.66131L17.2582 12.1641C17.2316 12.3319 17.3613 12.4831 17.5311 12.4831H19.111C19.3374 12.4831 19.53 12.3183 19.5653 12.0938L19.9263 9.80046C19.9611 9.57597 20.1542 9.41113 20.3802 9.41113H21.4278C23.6076 9.41113 24.8657 8.35416 25.1942 6.25961C25.3423 5.34325 25.2005 4.62325 24.7723 4.11901C24.3019 3.56531 23.4677 3.27246 22.3602 3.27246ZM22.7419 6.37792C22.561 7.56773 21.6537 7.56773 20.7765 7.56773H20.2771L20.6274 5.34567C20.6482 5.21137 20.7644 5.11246 20.8998 5.11246H21.1287C21.7263 5.11246 22.29 5.11246 22.5813 5.45379C22.755 5.65743 22.8082 5.95998 22.7419 6.37792Z" fill="#253B80"/>
<path d="M32.252 6.33927H30.6673C30.5323 6.33927 30.4157 6.43818 30.3949 6.57249L30.3247 7.01661L30.2139 6.85564C29.8709 6.35673 29.1059 6.18994 28.3423 6.18994C26.5912 6.18994 25.0955 7.51891 24.8042 9.38315C24.6528 10.3131 24.8681 11.2023 25.3946 11.8224C25.8775 12.3926 26.5684 12.6302 27.3905 12.6302C28.8015 12.6302 29.5839 11.7211 29.5839 11.7211L29.5133 12.1623C29.4867 12.331 29.6163 12.4823 29.7852 12.4823H31.2126C31.4396 12.4823 31.6312 12.3175 31.667 12.093L32.5234 6.6583C32.5505 6.49103 32.4213 6.33927 32.252 6.33927ZM30.0431 9.4297C29.8902 10.3369 29.1717 10.9458 28.2552 10.9458C27.795 10.9458 27.4273 10.7979 27.1912 10.5177C26.957 10.2394 26.868 9.84327 26.9425 9.40206C27.0852 8.50267 27.8159 7.87382 28.7183 7.87382C29.1683 7.87382 29.5341 8.02364 29.775 8.3063C30.0165 8.59188 30.1123 8.99043 30.0431 9.4297Z" fill="#253B80"/>
<path d="M40.6916 6.33936H39.0991C38.9472 6.33936 38.8045 6.41499 38.7183 6.54154L36.522 9.78323L35.5911 6.66808C35.5325 6.47317 35.353 6.33936 35.1498 6.33936H33.5849C33.3948 6.33936 33.2627 6.52554 33.3232 6.70493L35.0772 11.8627L33.4282 14.1954C33.2985 14.3791 33.4291 14.6317 33.6532 14.6317H35.2437C35.3946 14.6317 35.5359 14.558 35.6216 14.4339L40.918 6.7733C41.0448 6.59002 40.9146 6.33936 40.6916 6.33936Z" fill="#253B80"/>
<path d="M45.9639 3.27246H42.6543C42.4283 3.27246 42.2357 3.43731 42.2004 3.66131L40.862 12.1641C40.8354 12.3319 40.9651 12.4831 41.1339 12.4831H42.8323C42.9901 12.4831 43.1251 12.3677 43.1497 12.2106L43.5296 9.80046C43.5644 9.57597 43.7575 9.41113 43.9835 9.41113H45.0305C47.2109 9.41113 48.4685 8.35416 48.7975 6.25961C48.946 5.34325 48.8033 4.62325 48.3751 4.11901C47.9052 3.56531 47.0715 3.27246 45.9639 3.27246ZM46.3457 6.37792C46.1652 7.56773 45.258 7.56773 44.3802 7.56773H43.8814L44.2322 5.34567C44.253 5.21137 44.3681 5.11246 44.5041 5.11246H44.733C45.3301 5.11246 45.8943 5.11246 46.1855 5.45379C46.3593 5.65743 46.412 5.95998 46.3457 6.37792Z" fill="#179BD7"/>
<path d="M55.8551 6.33927H54.2714C54.1355 6.33927 54.0198 6.43818 53.9995 6.57249L53.9293 7.01661L53.818 6.85564C53.475 6.35673 52.7105 6.18994 51.9469 6.18994C50.1958 6.18994 48.7006 7.51891 48.4093 9.38315C48.2584 10.3131 48.4727 11.2023 48.9992 11.8224C49.483 12.3926 50.173 12.6302 50.9951 12.6302C52.4061 12.6302 53.1885 11.7211 53.1885 11.7211L53.1179 12.1623C53.0913 12.331 53.2209 12.4823 53.3908 12.4823H54.8177C55.0437 12.4823 55.2363 12.3175 55.2716 12.093L56.1285 6.6583C56.1547 6.49103 56.025 6.33927 55.8551 6.33927ZM53.6463 9.4297C53.4943 10.3369 52.7748 10.9458 51.8584 10.9458C51.3992 10.9458 51.0305 10.7979 50.7943 10.5177C50.5601 10.2394 50.4721 9.84327 50.5456 9.40206C50.6893 8.50267 51.419 7.87382 52.3214 7.87382C52.7714 7.87382 53.1372 8.02364 53.3782 8.3063C53.6206 8.59188 53.7164 8.99043 53.6463 9.4297Z" fill="#179BD7"/>
<path d="M57.7234 3.50567L56.3652 12.1641C56.3386 12.3319 56.4682 12.4831 56.6371 12.4831H58.0026C58.2295 12.4831 58.4221 12.3183 58.4569 12.0938L59.7963 3.59149C59.8229 3.42373 59.6932 3.27197 59.5244 3.27197H57.9953C57.8603 3.27246 57.7442 3.37137 57.7234 3.50567Z" fill="#179BD7"/>
<path d="M3.51585 14.1354L3.76891 12.5247L3.2052 12.5116H0.513428L2.38407 0.626521C2.38988 0.590643 2.40875 0.557188 2.43633 0.533431C2.46391 0.509673 2.49923 0.496582 2.53601 0.496582H7.07472C8.58149 0.496582 9.62133 0.810764 10.1642 1.43089C10.4188 1.72179 10.5808 2.02579 10.6592 2.36034C10.7415 2.71137 10.7429 3.13076 10.6626 3.64228L10.6568 3.67961V4.00737L10.9113 4.15185C11.1257 4.26579 11.296 4.39622 11.4267 4.54555C11.6444 4.79428 11.7852 5.1104 11.8447 5.48519C11.9062 5.87064 11.8858 6.32931 11.7852 6.84858C11.6691 7.44592 11.4813 7.96616 11.2278 8.39185C10.9946 8.7841 10.6975 9.10943 10.3447 9.36155C10.0079 9.60107 9.60778 9.78288 9.15536 9.89925C8.71698 10.0137 8.21714 10.0714 7.66891 10.0714H7.31569C7.06311 10.0714 6.81778 10.1625 6.6252 10.3259C6.43214 10.4927 6.3044 10.7206 6.2652 10.9698L6.23859 11.1148L5.79149 13.9536L5.77117 14.0578C5.76585 14.0908 5.75665 14.1072 5.74311 14.1184C5.73101 14.1286 5.71359 14.1354 5.69665 14.1354H3.51585Z" fill="#253B80"/>
<path d="M11.1523 3.71729C11.1387 3.80407 11.1233 3.8928 11.1058 3.98395C10.5073 7.06322 8.45955 8.12698 5.84422 8.12698H4.51261C4.19277 8.12698 3.92326 8.35971 3.87342 8.67583L3.19164 13.0084L2.99858 14.2366C2.96616 14.4441 3.12584 14.6312 3.33487 14.6312H5.69664C5.97632 14.6312 6.2139 14.4276 6.25793 14.1512L6.28116 14.031L6.72584 11.2033L6.75438 11.0482C6.79793 10.7709 7.036 10.5672 7.31568 10.5672H7.6689C9.95713 10.5672 11.7484 9.63632 12.272 6.9425C12.4907 5.81716 12.3774 4.87753 11.7987 4.21668C11.6236 4.01741 11.4063 3.85207 11.1523 3.71729Z" fill="#179BD7"/>
<path d="M10.5262 3.46723C10.4347 3.44056 10.3403 3.41632 10.2436 3.3945C10.1463 3.37317 10.0466 3.35426 9.94406 3.33777C9.58503 3.27959 9.19164 3.25195 8.77019 3.25195H5.21277C5.12519 3.25195 5.04196 3.27183 4.96745 3.30771C4.80341 3.38674 4.68148 3.54238 4.65196 3.73292L3.89519 8.53583L3.87341 8.67595C3.92325 8.35983 4.19277 8.1271 4.51261 8.1271H5.84422C8.45954 8.1271 10.5073 7.06286 11.1058 3.98407C11.1237 3.89292 11.1387 3.8042 11.1523 3.71741C11.0008 3.63692 10.8368 3.56807 10.6602 3.50941C10.6166 3.49486 10.5716 3.4808 10.5262 3.46723Z" fill="#222D65"/>
<path d="M4.65193 3.73285C4.68145 3.5423 4.80338 3.38667 4.96741 3.30812C5.04241 3.27224 5.12516 3.25236 5.21274 3.25236H8.77016C9.19161 3.25236 9.58499 3.28 9.94403 3.33818C10.0466 3.35467 10.1463 3.37358 10.2435 3.39491C10.3403 3.41673 10.4347 3.44097 10.5261 3.46764C10.5716 3.48121 10.6166 3.49527 10.6606 3.50933C10.8373 3.568 11.0013 3.63733 11.1527 3.71733C11.3308 2.57939 11.1513 1.80461 10.5373 1.10303C9.86032 0.330667 8.63854 0 7.07516 0H2.53645C2.21709 0 1.94467 0.232727 1.89532 0.549333L0.0048333 12.5566C-0.0324248 12.7942 0.150478 13.0085 0.389511 13.0085H3.19161L3.89516 8.53576L4.65193 3.73285Z" fill="#253B80"/>
</svg>
